<svg xmlns="http://www.w3.org/2000/svg" xmlns:xlink="http://www.w3.org/1999/xlink" width="300" zoomAndPan="magnify" viewBox="0 0 224.87999 74.999997" height="100" preserveAspectRatio="xMidYMid meet" version="1.0"><defs><g/></defs><g fill="#f8f8fa" fill-opacity="1"><g transform="translate(14.625783, 51.492538)"><g><path d="M 14.296875 -12.4375 L 13.484375 -12.4375 L 13.484375 -18.09375 L -0.65625 -18.09375 L -0.65625 -15.09375 C -0.65625 -10.59375 1.453125 -6.5 4.796875 -3.640625 C 11.890625 2.546875 23.140625 2.40625 29.6875 -4.5 C 32.984375 -8.046875 34.625 -12.734375 34.625 -17.53125 L 34.625 -35.03125 L 14.296875 -35.03125 Z M 14.296875 -12.4375 "/></g></g></g><g fill="#f8f8fa" fill-opacity="1"><g transform="translate(48.601901, 51.492538)"><g><path d="M 22.9375 -8.796875 L 18.984375 -19.984375 L 19.890625 -19.984375 L 26.6875 0 L 46.625 0 L 46.625 -1.703125 L 35.328125 -34.984375 L 11.1875 -34.984375 L -0.453125 -1 L -0.453125 0 L 19.890625 0 Z M 22.9375 -8.796875 "/></g></g></g><g fill="#f8f8fa" fill-opacity="1"><g transform="translate(94.17003, 51.492538)"><g><path d="M 20.59375 -18.78125 L 20.59375 -34.984375 L -0.046875 -34.984375 L -0.046875 0.046875 L 30.984375 0.046875 L 30.984375 -18.09375 L 16.734375 -18.09375 L 16.734375 -18.78125 Z M 20.59375 -18.78125 "/></g></g></g><g fill="#f8f8fa" fill-opacity="1"><g transform="translate(124.498653, 51.492538)"><g><path d="M 26.140625 -21.640625 L 25.890625 -22.34375 C 28.53125 -23.1875 31.484375 -22.734375 33.828125 -21.234375 C 34.578125 -20.84375 35.234375 -20.234375 35.828125 -19.734375 L 35.828125 -35.375 L 12.734375 -35.375 C 9.796875 -35.375 6.84375 -34.625 4.453125 -32.875 C 1.84375 -30.78125 0.15625 -27.6875 0 -24.1875 C -0.09375 -20.78125 1.703125 -16.9375 4.75 -15.390625 C 6.703125 -14.140625 9.1875 -13.6875 11.4375 -14.234375 L 11.75 -13.546875 C 9.1875 -12.84375 6.59375 -13.296875 4.34375 -14.640625 C 3.09375 -15.390625 2.09375 -16.34375 1.25 -17.484375 L 1.25 0 L 25.1875 0 C 28.234375 0 31.1875 -0.796875 33.734375 -2.640625 C 36.484375 -4.75 38.171875 -7.84375 38.328125 -11.4375 C 38.328125 -15.046875 36.625 -18.734375 33.421875 -20.6875 C 31.328125 -21.9375 28.53125 -22.484375 26.140625 -21.640625 Z M 26.140625 -21.640625 "/></g></g></g><g fill="#f8f8fa" fill-opacity="1"><g transform="translate(161.572636, 51.492538)"><g><path d="M 22.9375 -8.796875 L 18.984375 -19.984375 L 19.890625 -19.984375 L 26.6875 0 L 46.625 0 L 46.625 -1.703125 L 35.328125 -34.984375 L 11.1875 -34.984375 L -0.453125 -1 L -0.453125 0 L 19.890625 0 Z M 22.9375 -8.796875 "/></g></g></g></svg>